<svg id="Layer_1" data-name="Layer 1" xmlns="http://www.w3.org/2000/svg" viewBox="0 0 72 72"><defs><style>.cls-1,.cls-2{fill:#fff;}.cls-1{fill-rule:evenodd;}</style></defs><path class="cls-1" d="M36,1.5A35.38,35.38,0,0,0,24.82,70.44c1.76.33,2.41-.77,2.41-1.7s0-3.63,0-6.59C17.35,64.29,15.27,58,15.27,58c-1.61-4.09-3.93-5.18-3.93-5.18-3.21-2.19.24-2.15.24-2.15C15.13,50.9,17,54.3,17,54.3c3.15,5.4,8.27,3.84,10.29,2.94a7.49,7.49,0,0,1,2.25-4.73c-7.86-.9-16.12-3.93-16.12-17.48a13.7,13.7,0,0,1,3.64-9.5,12.77,12.77,0,0,1,.35-9.36s3-1,9.73,3.63a33.54,33.54,0,0,1,17.71,0c6.75-4.58,9.72-3.63,9.72-3.63a12.77,12.77,0,0,1,.35,9.36A13.7,13.7,0,0,1,58.57,35c0,13.58-8.28,16.57-16.16,17.45,1.27,1.1,2.4,3.25,2.4,6.55,0,4.73,0,8.54,0,9.71,0,.94.64,2,2.43,1.69A35.38,35.38,0,0,0,36,1.5Z"/><path class="cls-2" d="M14,52.29c-.07.17-.35.23-.6.11s-.4-.36-.32-.54.35-.23.61-.11.4.36.31.54ZM13.59,52"/><path class="cls-2" d="M15.46,53.89a.56.56,0,0,1-.73-.17.54.54,0,0,1-.1-.73c.18-.16.5-.09.73.16a.55.55,0,0,1,.1.74Zm-.34-.37"/><path class="cls-2" d="M16.85,55.92c-.21.15-.57,0-.79-.3s-.22-.69,0-.84.57,0,.79.29.21.7,0,.85Zm0,0"/><path class="cls-2" d="M18.76,57.89c-.19.22-.6.16-.91-.13a.69.69,0,0,1-.2-.91c.2-.21.61-.15.92.14s.4.69.19.9Zm0,0"/><path class="cls-2" d="M21.4,59c-.09.28-.48.41-.89.29s-.66-.45-.58-.73a.69.69,0,0,1,.89-.28c.4.12.66.44.58.72Zm0,0"/><path class="cls-2" d="M24.29,59.25c0,.29-.33.53-.75.54s-.76-.23-.77-.52.34-.53.76-.54.76.23.76.52Zm0,0"/><path class="cls-2" d="M27,58.79c.05.28-.24.57-.66.65a.69.69,0,0,1-.85-.38c-.05-.29.25-.58.66-.66s.79.1.85.39Zm0,0"/></svg>