<svg id="Layer_1" data-name="Layer 1" xmlns="http://www.w3.org/2000/svg" viewBox="0 0 72 72"><defs><style>.cls-1{fill:#fff;}</style></defs><path class="cls-1" d="M25.79,58.36c20.77,0,32.12-17.2,32.12-32.12,0-.49,0-1,0-1.46a23,23,0,0,0,5.63-5.84A22.37,22.37,0,0,1,57,20.71a11.26,11.26,0,0,0,5-6.24,22.79,22.79,0,0,1-7.17,2.74,11.29,11.29,0,0,0-19.53,7.72,10.83,10.83,0,0,0,.3,2.57A32.05,32.05,0,0,1,12.32,15.71a11.3,11.3,0,0,0,3.49,15.07,11.31,11.31,0,0,1-5.11-1.41v.14a11.3,11.3,0,0,0,9.06,11.07,11.48,11.48,0,0,1-5.1.19A11.29,11.29,0,0,0,25.2,48.61a22.62,22.62,0,0,1-14,4.83,23.85,23.85,0,0,1-2.69-.15,32,32,0,0,0,17.3,5.07"/></svg>